<svg width="300" height="75" viewBox="0 0 300 75" fill="none" xmlns="http://www.w3.org/2000/svg">
<path d="M61.1863 25.0141L55.4516 21.5943C54.4969 19.2219 53.0803 17.6199 51.8128 16.206L51.6659 16.0452C48.6476 12.6709 45.2982 11.0895 41.6983 11.3399C37.1584 11.6573 32.6075 14.9309 28.4958 20.804C27.6299 20.4507 26.7597 20.1113 25.8939 19.7757C18.9533 17.0793 12.3969 14.5328 8.61708 4.22117L7.06977 0L6.53 4.46429C5.98584 8.95723 5.89256 12.8376 6.14519 16.2229C4.7139 14.5593 3.50807 12.5915 2.50859 10.2558L0.926018 6.56423L0.444267 10.5555C-2.36323 33.7789 8.67363 38.7875 18.4114 43.207L18.429 43.2143C17.4589 46.8912 16.9265 51.9475 16.411 56.8554C16.1642 59.1992 15.8859 61.8567 15.5349 64.3187C15.0663 64.3922 14.6073 64.4656 14.1579 64.5332C10.3223 65.1208 7.54858 65.5453 6.76867 67.4132C6.12316 68.9556 7.30917 70.5972 7.69912 71.1371C8.90642 72.811 10.6777 74.922 12.6429 74.922C12.8804 74.9219 13.117 74.8908 13.3464 74.8294C15.5231 74.2492 16.6247 71.2171 17.4391 66.1917C19.1502 65.8891 20.9457 65.5027 22.7434 64.9328C38.2071 60.0263 41.1592 49.1909 43.7648 39.6322C45.5904 32.932 47.1943 27.0553 52.8813 24.3002C54.5197 23.6722 61.1863 25.0141 61.1863 25.0141ZM12.7912 72.7375C12.2809 72.8734 11.1294 72.194 9.45132 69.873C8.62663 68.7294 8.73238 68.3188 8.76248 68.2483C9.07606 67.4984 12.0767 67.0386 14.4862 66.6691L15.1824 66.5619C14.6051 69.8781 13.8465 72.4562 12.7934 72.7375H12.7912ZM2.25376 14.51C3.40713 16.4575 4.85959 18.2114 6.5579 19.7074C8.43495 31.2677 14.8791 36.2513 20.7511 40.7831C22.026 41.7659 23.2619 42.7207 24.4105 43.7116C22.7699 42.8081 21.0324 42.0222 19.3066 41.2341C10.37 37.1789 1.14633 32.9945 2.25376 14.51ZM22.0943 62.8695C20.6765 63.3087 19.2338 63.6631 17.774 63.9309C18.0471 61.8941 18.2976 59.6032 18.5627 57.0765C19.0518 52.4117 19.5577 47.6103 20.428 44.1258C26.4814 46.9537 31.3532 49.9842 31.2438 58.2503C28.8681 60.0872 25.8946 61.6642 22.0943 62.8695ZM33.3661 56.392C32.852 47.3944 27.605 43.3414 22.0708 39.0717C14.6962 33.3816 7.08959 27.5107 8.29396 8.82796C12.5533 16.9075 18.9262 19.3849 25.1162 21.7904C32.0288 24.4758 38.5603 27.0149 42.1536 37.3346C41.995 37.9061 41.8373 38.481 41.6806 39.0592C40.0063 45.2092 38.2908 51.4943 33.3661 56.392ZM43.1523 33.9897C40.0357 27.0575 35.4165 23.8962 30.5263 21.6714C34.1379 16.6452 38.1292 13.752 41.8532 13.4913C44.7467 13.2849 47.5079 14.6312 50.0591 17.4826L50.206 17.6427C51.2862 18.8487 52.3973 20.0908 53.2007 21.8014C47.3772 24.0145 44.8979 28.6352 43.1523 33.9934V33.9897Z" fill="white"/>
<path d="M68.6785 47.9709V26.2227H84.4953V30.3337H73.9966V34.8852H83.337V38.9962H73.9966V47.9709H68.6785Z" fill="white"/>
<path d="M93.551 26.2227C97.1769 26.2227 99.9542 26.7962 101.883 27.943C103.811 29.0899 104.776 30.8723 104.777 33.2903C104.777 34.8008 104.388 36.0266 103.61 36.9677C102.832 37.9088 101.71 38.6498 100.247 39.1907C100.734 39.7284 101.245 40.3436 101.78 41.0362C102.314 41.7288 102.843 42.4525 103.366 43.2072C103.89 43.963 104.396 44.7493 104.884 45.5661C105.371 46.383 105.825 47.1841 106.244 47.9694H100.159C99.7161 47.2666 99.2669 46.5536 98.8113 45.8305C98.3558 45.1073 97.8894 44.404 97.4121 43.7206C96.9348 43.0392 96.4621 42.3929 95.994 41.7818C95.5259 41.1707 95.0595 40.6176 94.5948 40.1226H91.9114V47.9709H86.4724V26.7758C87.6874 26.5657 88.9154 26.4208 90.1499 26.3419C91.4169 26.2624 92.5506 26.2227 93.551 26.2227ZM93.8651 30.3478C93.4685 30.3478 93.1149 30.3585 92.8007 30.3783L91.9131 30.441V36.2741H93.4462C95.4904 36.2741 96.9549 36.0464 97.8396 35.5912C98.7243 35.1359 99.1656 34.3603 99.1633 33.2643C99.1633 32.2101 98.7158 31.4605 97.8207 31.0154C96.9257 30.5703 95.6066 30.3478 93.8634 30.3478H93.8651Z" fill="white"/>
<path d="M108.221 47.9693V26.2227H123.301V30.3334H113.243V34.6018H122.172V38.6198H113.243V43.8602H124.037V47.9709L108.221 47.9693Z" fill="white"/>
<path d="M127.992 47.9693V26.2227H143.058V30.3334H133.024V34.6018H141.945V38.6198H133.024V43.8602H143.809V47.9709L127.992 47.9693Z" fill="white"/>
<path d="M167.534 38.0515C167.534 40.0557 167.23 41.8042 166.621 43.2972C166.058 44.7273 165.17 45.9988 164.031 47.006C162.836 48.0291 161.443 48.7807 159.944 49.2109C158.186 49.7223 156.365 49.9701 154.538 49.9465C153.627 49.9465 152.563 49.9075 151.346 49.8296C150.142 49.7515 148.944 49.5865 147.763 49.336V26.7917C148.974 26.5634 150.198 26.4128 151.428 26.3408C152.698 26.2619 153.789 26.2229 154.701 26.224C156.476 26.2034 158.244 26.4281 159.96 26.8921C161.443 27.289 162.825 28.0066 164.015 28.9966C165.165 29.9835 166.06 31.246 166.621 32.6725C167.23 34.1655 167.534 35.9585 167.534 38.0515ZM152.844 45.4034C153.083 45.4247 153.36 45.4412 153.675 45.4527C153.989 45.4642 154.364 45.4692 154.797 45.4692C157.338 45.4692 159.221 44.811 160.446 43.4946C161.672 42.1783 162.285 40.3628 162.288 38.0482C162.288 35.6217 161.699 33.7838 160.523 32.5343C159.347 31.2849 157.491 30.6612 154.955 30.6634C154.607 30.6634 154.249 30.6634 153.88 30.6799C153.531 30.6897 153.183 30.7177 152.837 30.7638L152.844 45.4034Z" fill="white"/>
<path d="M193.236 38.095C193.236 40.0435 192.958 41.7559 192.401 43.2324C191.898 44.6232 191.12 45.8879 190.116 46.944C189.137 47.947 187.959 48.7141 186.664 49.191C185.283 49.7035 183.827 49.9596 182.361 49.9476C180.92 49.9571 179.489 49.701 178.135 49.191C176.839 48.7065 175.657 47.9406 174.668 46.944C173.647 45.8938 172.853 44.629 172.339 43.234C171.773 41.7565 171.489 40.044 171.488 38.0966C171.487 36.1492 171.781 34.4367 172.371 32.9592C172.911 31.5626 173.721 30.2969 174.752 29.2411C175.741 28.2411 176.923 27.4699 178.218 26.9779C179.547 26.4722 180.951 26.2166 182.365 26.223C183.805 26.2139 185.235 26.4694 186.59 26.9779C187.888 27.4652 189.071 28.237 190.058 29.2411C191.076 30.2969 191.869 31.5636 192.387 32.9592C192.953 34.4356 193.236 36.1476 193.236 38.095ZM176.557 38.095C176.545 39.1163 176.678 40.1339 176.952 41.1147C177.185 41.9543 177.571 42.7399 178.086 43.4296C178.572 44.0671 179.192 44.5785 179.9 44.9233C180.674 45.2698 181.508 45.4484 182.351 45.4484C183.194 45.4484 184.028 45.2698 184.803 44.9233C185.516 44.5818 186.142 44.0701 186.63 43.4296C187.146 42.7396 187.531 41.9541 187.767 41.1147C188.039 40.1336 188.171 39.1162 188.159 38.095C188.171 37.0685 188.038 36.0458 187.767 35.0591C187.534 34.2138 187.148 33.4226 186.63 32.728C186.142 32.0875 185.516 31.5758 184.803 31.2343C184.035 30.8752 183.201 30.6959 182.359 30.7089C181.51 30.692 180.669 30.8772 179.9 31.2505C179.193 31.6045 178.573 32.1208 178.086 32.7603C177.569 33.4548 177.183 34.2461 176.952 35.0914C176.68 36.0672 176.548 37.0792 176.559 38.095H176.557Z" fill="white"/>
<path d="M203.923 26.2227C204.32 26.913 204.778 27.7656 205.298 28.7805C205.818 29.7954 206.36 30.8937 206.925 32.0755C207.488 33.2583 208.046 34.4664 208.6 35.6997L210.157 39.1848C210.642 38.0967 211.161 36.935 211.715 35.6997C212.268 34.4643 212.825 33.2563 213.387 32.0755C213.951 30.8937 214.493 29.7954 215.015 28.7805C215.537 27.7656 215.994 26.913 216.388 26.2227H221.082C221.299 27.6652 221.503 29.2812 221.693 31.0709C221.884 32.8606 222.047 34.7229 222.182 36.6579C222.325 38.5928 222.457 40.5335 222.579 42.4798C222.7 44.426 222.805 46.2564 222.893 47.9709H217.869C217.802 45.8587 217.714 43.5575 217.606 41.0672C217.497 38.5769 217.334 36.066 217.117 33.5345C216.72 34.4144 216.278 35.3875 215.791 36.4539C215.304 37.5203 214.823 38.5872 214.349 39.6546C213.874 40.721 213.416 41.741 212.974 42.7147C212.533 43.6883 212.157 44.5203 211.846 45.2107H208.245C207.934 44.5203 207.558 43.6883 207.117 42.7147C206.677 41.741 206.218 40.721 205.741 39.6546C205.266 38.5882 204.786 37.5213 204.3 36.4539C203.814 35.3865 203.372 34.4133 202.974 33.5345C202.757 36.068 202.592 38.5789 202.478 41.0672C202.364 43.5554 202.276 45.8567 202.214 47.9709H197.19C197.278 46.2575 197.383 44.4271 197.504 42.4798C197.626 40.5324 197.758 38.5918 197.902 36.6579C198.045 34.7229 198.208 32.8606 198.39 31.0709C198.572 29.2812 198.776 27.6652 199.002 26.2227H203.923Z" fill="white"/>
<path d="M234.353 49.948C233.117 49.948 231.889 49.9091 230.669 49.8312C229.383 49.7449 228.106 49.5607 226.847 49.28V26.8237C227.977 26.6114 229.118 26.461 230.264 26.3729C231.498 26.2731 232.647 26.2232 233.711 26.2232C235.034 26.2145 236.356 26.3201 237.663 26.5391C238.752 26.7107 239.803 27.0782 240.769 27.625C241.606 28.1069 242.306 28.8037 242.803 29.647C243.29 30.4828 243.533 31.5128 243.533 32.7368C243.533 34.5861 242.666 36.0449 240.932 37.1133C242.364 37.6716 243.34 38.4289 243.86 39.3854C244.389 40.3782 244.658 41.495 244.64 42.6266C244.64 45.055 243.778 46.8812 242.055 48.1053C240.331 49.3294 237.764 49.9436 234.353 49.948ZM231.79 35.5815H234.262C235.824 35.5815 236.941 35.3758 237.613 34.9645C238.285 34.5532 238.621 33.8902 238.621 32.9754C238.621 32.0409 238.273 31.3828 237.579 31.0011C236.885 30.6194 235.866 30.4302 234.523 30.4335C234.089 30.4335 233.623 30.4335 233.123 30.4499C232.623 30.4664 232.181 30.4894 231.79 30.5338V35.5815ZM231.79 39.5581V45.5387C232.159 45.5826 232.56 45.616 232.993 45.639C233.427 45.6621 233.904 45.673 234.425 45.672C235.942 45.672 237.167 45.4493 238.1 45.004C239.033 44.5586 239.5 43.736 239.5 42.5361C239.5 41.4666 239.109 40.7038 238.327 40.2475C237.546 39.7912 236.429 39.5631 234.978 39.5631L231.79 39.5581Z" fill="white"/>
<path d="M248.595 26.2227H252.549V47.9709H248.595V26.2227Z" fill="white"/>
<path d="M264.851 26.2227C268.115 26.2227 270.615 26.7963 272.352 27.9434C274.089 29.0905 274.958 30.8733 274.956 33.2918C274.956 34.8026 274.606 36.0286 273.906 36.97C273.205 37.9113 272.195 38.6509 270.877 39.1888C271.315 39.7267 271.776 40.342 272.258 41.0348C272.74 41.7275 273.216 42.4513 273.686 43.2062C274.156 43.9621 274.611 44.7486 275.051 45.5656C275.491 46.3827 275.899 47.1839 276.275 47.9694H270.802C270.403 47.2664 269.998 46.5533 269.588 45.83C269.178 45.1067 268.758 44.4033 268.33 43.7197C267.898 43.0381 267.473 42.3917 267.053 41.7805C266.634 41.1692 266.214 40.6161 265.792 40.121H263.377V47.9709H258.481V26.7759C259.574 26.5658 260.68 26.4208 261.791 26.3419C262.932 26.2625 263.952 26.2227 264.851 26.2227ZM265.134 30.3486C264.778 30.3486 264.458 30.3593 264.177 30.3792L263.377 30.4419V36.2762H264.757C266.598 36.2762 267.916 36.0485 268.711 35.5931C269.507 35.1378 269.905 34.362 269.905 33.2658C269.905 32.2114 269.502 31.4616 268.696 31.0164C267.89 30.5712 266.703 30.3486 265.134 30.3486Z" fill="white"/>
<path d="M300 38.0515C300 40.0557 299.696 41.8042 299.087 43.2972C298.524 44.7273 297.636 45.9987 296.497 47.006C295.302 48.0291 293.909 48.7806 292.41 49.2109C290.652 49.7225 288.831 49.9702 287.004 49.9464C286.093 49.9464 285.029 49.9075 283.812 49.8296C282.608 49.7515 281.411 49.5865 280.229 49.336V26.7917C281.44 26.5634 282.664 26.4128 283.894 26.3408C285.164 26.2619 286.255 26.2229 287.167 26.224C288.942 26.2034 290.711 26.4281 292.426 26.8921C293.909 27.2892 295.292 28.0067 296.483 28.9966C297.632 29.984 298.526 31.2465 299.087 32.6725C299.695 34.1655 299.999 35.9585 300 38.0515ZM285.31 45.4033C285.549 45.4247 285.826 45.4412 286.141 45.4527C286.455 45.4642 286.831 45.4692 287.264 45.4692C289.804 45.4692 291.688 44.811 292.914 43.4946C294.14 42.1783 294.754 40.3628 294.754 38.0482C294.754 35.6217 294.166 33.7838 292.989 32.5343C291.813 31.2849 289.956 30.6612 287.419 30.6634C287.071 30.6634 286.713 30.6634 286.345 30.6799C285.996 30.6897 285.648 30.7177 285.302 30.7638L285.31 45.4033Z" fill="white"/>
</svg>
