<svg width="54" height="54" viewBox="0 0 54 54" fill="none" xmlns="http://www.w3.org/2000/svg">
<path d="M23.6667 15C25.9652 15 28.1696 15.9131 29.7949 17.5384C31.4202 19.1637 32.3333 21.3681 32.3333 23.6667C32.3333 25.8133 31.5467 27.7867 30.2533 29.3067L30.6133 29.6667H31.6667L38.3333 36.3333L36.3333 38.3333L29.6667 31.6667V30.6133L29.3067 30.2533C27.7867 31.5467 25.8133 32.3333 23.6667 32.3333C21.3681 32.3333 19.1637 31.4202 17.5384 29.7949C15.9131 28.1696 15 25.9652 15 23.6667C15 21.3681 15.9131 19.1637 17.5384 17.5384C19.1637 15.9131 21.3681 15 23.6667 15ZM23.6667 17.6667C20.3333 17.6667 17.6667 20.3333 17.6667 23.6667C17.6667 27 20.3333 29.6667 23.6667 29.6667C27 29.6667 29.6667 27 29.6667 23.6667C29.6667 20.3333 27 17.6667 23.6667 17.6667Z" fill="#1BB55C"/>
</svg>
